<svg xmlns="http://www.w3.org/2000/svg" width="680" height="480" viewBox="0 0 680 480" font-family="system-ui, -apple-system, 'Segoe UI', sans-serif">
  <defs>
    <marker id="arrow" viewBox="0 0 10 10" refX="8" refY="5" markerWidth="6" markerHeight="6" orient="auto-start-reverse">
      <path d="M2 1L8 5L2 9" fill="none" stroke="#8a8a8a" stroke-width="1.5" stroke-linecap="round" stroke-linejoin="round"/>
    </marker>
  </defs>

  <rect x="250" y="30" width="180" height="56" rx="10" fill="#F1EFE8" stroke="#5F5E5A" stroke-width="1"/>
  <text x="340" y="54" text-anchor="middle" font-size="15" font-weight="500" fill="#2C2C2A">MBTA V3 API</text>
  <text x="340" y="73" text-anchor="middle" font-size="12.5" fill="#5F5E5A">vehicles + predictions</text>

  <line x1="300" y1="86" x2="215" y2="148" stroke="#8a8a8a" stroke-width="1.2" marker-end="url(#arrow)"/>
  <line x1="390" y1="86" x2="470" y2="148" stroke="#8a8a8a" stroke-width="1.2" marker-end="url(#arrow)"/>

  <rect x="70" y="150" width="230" height="72" rx="10" fill="#EAF3DE" stroke="#3B6D11" stroke-width="1"/>
  <text x="185" y="174" text-anchor="middle" font-size="15" font-weight="500" fill="#173404">Django</text>
  <text x="185" y="194" text-anchor="middle" font-size="12.5" fill="#3B6D11">REST API + ORM</text>
  <text x="185" y="211" text-anchor="middle" font-size="12.5" fill="#3B6D11">analytics + ingestion</text>

  <rect x="380" y="150" width="230" height="72" rx="10" fill="#FAEEDA" stroke="#854F0B" stroke-width="1"/>
  <text x="495" y="174" text-anchor="middle" font-size="15" font-weight="500" fill="#412402">Node.js</text>
  <text x="495" y="194" text-anchor="middle" font-size="12.5" fill="#854F0B">WebSocket stream</text>
  <text x="495" y="211" text-anchor="middle" font-size="12.5" fill="#854F0B">live vehicle positions</text>

  <text x="150" y="258" text-anchor="middle" font-size="12.5" fill="#5F5E5A">REST</text>
  <line x1="185" y1="222" x2="255" y2="298" stroke="#8a8a8a" stroke-width="1.2" marker-end="url(#arrow)"/>
  <text x="545" y="258" text-anchor="middle" font-size="12.5" fill="#5F5E5A">WebSocket</text>
  <line x1="495" y1="222" x2="425" y2="298" stroke="#8a8a8a" stroke-width="1.2" marker-end="url(#arrow)"/>

  <rect x="180" y="300" width="320" height="72" rx="10" fill="#E6F1FB" stroke="#185FA5" stroke-width="1"/>
  <text x="340" y="324" text-anchor="middle" font-size="15" font-weight="500" fill="#042C53">Next.js frontend</text>
  <text x="340" y="344" text-anchor="middle" font-size="12.5" fill="#185FA5">live map + reliability dashboard</text>
  <text x="340" y="361" text-anchor="middle" font-size="12.5" fill="#185FA5">browser</text>

  <text x="95" y="290" text-anchor="middle" font-size="12.5" fill="#5F5E5A">reads/writes</text>
  <line x1="130" y1="222" x2="130" y2="405" stroke="#8a8a8a" stroke-width="1.2" marker-end="url(#arrow)"/>

  <rect x="40" y="407" width="180" height="52" rx="10" fill="#E1F5EE" stroke="#0F6E56" stroke-width="1"/>
  <text x="130" y="429" text-anchor="middle" font-size="15" font-weight="500" fill="#04342C">PostgreSQL</text>
  <text x="130" y="447" text-anchor="middle" font-size="12.5" fill="#0F6E56">time-series snapshots</text>
</svg>